<svg width="55" height="55" viewBox="0 0 55 55" fill="none" xmlns="http://www.w3.org/2000/svg">
<g clip-path="url(#clip0_855_5999)">
<rect width="55" height="55" fill="#1C1C1C"/>
<circle cx="2" cy="2" r="2" transform="matrix(1 8.74228e-08 8.74228e-08 -1 45.5 19.5)" fill="#07DFB4"/>
<circle cx="2" cy="2" r="2" transform="matrix(1 8.74228e-08 8.74228e-08 -1 45.5 14.5)" fill="#07DFB4"/>
<circle cx="2" cy="2" r="2" transform="matrix(1 8.74228e-08 8.74228e-08 -1 45.5 9.5)" fill="#07DFB4"/>
<circle cx="2" cy="2" r="2" transform="matrix(1 8.74228e-08 8.74228e-08 -1 45.5 24.5)" fill="#07DFB4"/>
<circle cx="2" cy="2" r="2" transform="matrix(1 8.74228e-08 8.74228e-08 -1 45.5 29.5)" fill="#07DFB4"/>
<circle cx="2" cy="2" r="2" transform="matrix(1 8.74228e-08 8.74228e-08 -1 45.5 34.5)" fill="#07DFB4"/>
<circle cx="2" cy="2" r="2" transform="matrix(1 8.74228e-08 8.74228e-08 -1 45.5 39.5)" fill="#07DFB4"/>
<circle cx="2" cy="2" r="2" transform="matrix(1 8.74228e-08 8.74228e-08 -1 40.5 9.5)" fill="#07DFB4"/>
<circle cx="2" cy="2" r="2" transform="matrix(1 8.74228e-08 8.74228e-08 -1 35.5 9.5)" fill="#07DFB4"/>
<circle cx="2" cy="2" r="2" transform="matrix(1 8.74228e-08 8.74228e-08 -1 30.5 9.5)" fill="#07DFB4"/>
<circle cx="6" cy="6" r="6" transform="matrix(1 8.74228e-08 8.74228e-08 -1 1.5 13.5002)" fill="#D9D9D9"/>
<path d="M28.332 12.1819L28.332 2.81839C28.332 1.85461 27.1676 1.31879 26.3815 1.92086L20.5619 6.37825C19.811 6.95342 19.811 8.04691 20.5619 8.62208L26.3815 13.0795C27.1676 13.6815 28.332 13.1457 28.332 12.1819Z" fill="#07DFB4"/>
<circle cx="2" cy="2" r="2" transform="matrix(-1 -1.74846e-07 -1.74846e-07 1 9.5 35.5)" fill="#D9D9D9"/>
<circle cx="2" cy="2" r="2" transform="matrix(-1 -1.74846e-07 -1.74846e-07 1 9.5 40.5)" fill="#D9D9D9"/>
<circle cx="2" cy="2" r="2" transform="matrix(-1 -1.74846e-07 -1.74846e-07 1 9.5 45.5)" fill="#D9D9D9"/>
<circle cx="2" cy="2" r="2" transform="matrix(-1 -1.74846e-07 -1.74846e-07 1 9.5 30.5)" fill="#D9D9D9"/>
<circle cx="2" cy="2" r="2" transform="matrix(-1 -1.74846e-07 -1.74846e-07 1 9.5 25.5)" fill="#D9D9D9"/>
<circle cx="2" cy="2" r="2" transform="matrix(-1 -1.74846e-07 -1.74846e-07 1 9.5 20.5)" fill="#D9D9D9"/>
<circle cx="2" cy="2" r="2" transform="matrix(-1 -1.74846e-07 -1.74846e-07 1 9.5 15.5)" fill="#D9D9D9"/>
<circle cx="2" cy="2" r="2" transform="matrix(-1 -1.74846e-07 -1.74846e-07 1 14.5 45.5)" fill="#D9D9D9"/>
<circle cx="2" cy="2" r="2" transform="matrix(-1 -1.74846e-07 -1.74846e-07 1 19.5 45.5)" fill="#D9D9D9"/>
<circle cx="2" cy="2" r="2" transform="matrix(-1 -1.74846e-07 -1.74846e-07 1 24.5 45.5)" fill="#D9D9D9"/>
<path d="M26.668 42.8181L26.668 52.1816C26.668 53.1454 27.8324 53.6812 28.6185 53.0791L34.4381 48.6218C35.189 48.0466 35.189 46.9531 34.4381 46.3779L28.6185 41.9205C27.8324 41.3185 26.668 41.8543 26.668 42.8181Z" fill="#D9D9D9"/>
<ellipse cx="6" cy="6" rx="6" ry="6" transform="matrix(-1 -1.74846e-07 -1.74846e-07 1 53.5 41.4998)" fill="#07DFB4"/>
</g>
<defs>
<clipPath id="clip0_855_5999">
<rect width="55" height="55" fill="white"/>
</clipPath>
</defs>
</svg>
