<svg width="55" height="55" viewBox="0 0 55 55" fill="none" xmlns="http://www.w3.org/2000/svg">
<g clip-path="url(#clip0_855_6134)">
<rect width="55" height="55" fill="#1C1C1C"/>
<circle cx="2" cy="2" r="2" transform="matrix(-1 -1.74846e-07 -1.74846e-07 1 34.5 20.5)" fill="#07DFB4"/>
<circle cx="2" cy="2" r="2" transform="matrix(-1 -1.74846e-07 -1.74846e-07 1 14.5 40.5)" fill="#07DFB4"/>
<circle cx="2" cy="2" r="2" transform="matrix(-1 -1.74846e-07 -1.74846e-07 1 9.5 45.5)" fill="#07DFB4"/>
<circle cx="2" cy="2" r="2" transform="matrix(-1 -1.74846e-07 -1.74846e-07 1 39.5 15.5)" fill="#07DFB4"/>
<circle cx="2" cy="2" r="2" transform="matrix(-1 -1.74846e-07 -1.74846e-07 1 44.5 10.5)" fill="#07DFB4"/>
<circle cx="2" cy="2" r="2" transform="matrix(-1 -1.74846e-07 -1.74846e-07 1 49.5 5.5)" fill="#07DFB4"/>
<circle cx="2" cy="2" r="2" transform="matrix(-1 -3.49691e-07 -3.49691e-07 1 19.5 20.5)" fill="#D9D9D9"/>
<circle cx="2" cy="2" r="2" transform="matrix(-1 -3.49691e-07 -3.49691e-07 1 14.5 20.5)" fill="#D9D9D9"/>
<circle cx="2" cy="2" r="2" transform="matrix(-1 -3.49691e-07 -3.49691e-07 1 9.5 15.5)" fill="#D9D9D9"/>
<circle cx="2" cy="2" r="2" transform="matrix(-1 -3.49691e-07 -3.49691e-07 1 4.5 10.5)" fill="#D9D9D9"/>
<circle cx="2" cy="2" r="2" transform="matrix(-1 -3.49691e-07 -3.49691e-07 1 9.5 5.5)" fill="#D9D9D9"/>
<circle cx="2" cy="2" r="2" transform="matrix(-1 -3.49691e-07 -3.49691e-07 1 14.5 0.5)" fill="#D9D9D9"/>
<circle cx="2" cy="2" r="2" transform="matrix(-1 -3.49691e-07 -3.49691e-07 1 14.5 15.5)" fill="#D9D9D9"/>
<circle cx="2" cy="2" r="2" transform="matrix(-1 -3.49691e-07 -3.49691e-07 1 9.5 10.5)" fill="#D9D9D9"/>
<circle cx="2" cy="2" r="2" transform="matrix(-1 -3.49691e-07 -3.49691e-07 1 14.5 5.5)" fill="#D9D9D9"/>
<circle cx="2" cy="2" r="2" transform="matrix(-1 -3.49691e-07 -3.49691e-07 1 19.5 0.5)" fill="#D9D9D9"/>
<circle cx="2" cy="2" r="2" transform="matrix(1 2.62268e-07 2.62268e-07 -1 35.5 34.5)" fill="#D9D9D9"/>
<circle cx="2" cy="2" r="2" transform="matrix(1 2.62268e-07 2.62268e-07 -1 40.5 34.5)" fill="#D9D9D9"/>
<circle cx="2" cy="2" r="2" transform="matrix(1 2.62268e-07 2.62268e-07 -1 45.5 39.5)" fill="#D9D9D9"/>
<circle cx="2" cy="2" r="2" transform="matrix(1 2.62268e-07 2.62268e-07 -1 50.5 44.5)" fill="#D9D9D9"/>
<circle cx="2" cy="2" r="2" transform="matrix(1 2.62268e-07 2.62268e-07 -1 45.5 49.5)" fill="#D9D9D9"/>
<circle cx="2" cy="2" r="2" transform="matrix(1 2.62268e-07 2.62268e-07 -1 40.5 54.5)" fill="#D9D9D9"/>
<circle cx="2" cy="2" r="2" transform="matrix(1 2.62268e-07 2.62268e-07 -1 40.5 39.5)" fill="#D9D9D9"/>
<circle cx="2" cy="2" r="2" transform="matrix(1 2.62268e-07 2.62268e-07 -1 45.5 44.5)" fill="#D9D9D9"/>
<circle cx="2" cy="2" r="2" transform="matrix(1 2.62268e-07 2.62268e-07 -1 40.5 49.5)" fill="#D9D9D9"/>
<circle cx="2" cy="2" r="2" transform="matrix(1 2.62268e-07 2.62268e-07 -1 35.5 54.5)" fill="#D9D9D9"/>
<path d="M31.0472 21.1243C31.8282 20.3433 33.0945 20.3433 33.8756 21.1243C34.6566 21.9054 34.6566 23.1717 33.8756 23.9528L19.6292 38.1992C18.8481 38.9802 17.5818 38.9802 16.8008 38.1992C16.0197 37.4181 16.0197 36.1518 16.8008 35.3707L31.0472 21.1243Z" fill="#07DFB4"/>
</g>
<defs>
<clipPath id="clip0_855_6134">
<rect width="55" height="55" fill="white"/>
</clipPath>
</defs>
</svg>
