<svg width="55" height="55" viewBox="0 0 55 55" fill="none" xmlns="http://www.w3.org/2000/svg">
<g clip-path="url(#clip0_855_6240)">
<rect width="55" height="55" fill="#1C1C1C"/>
<circle cx="2" cy="2" r="2" transform="matrix(1 8.74228e-08 8.74228e-08 -1 15.5 4.5)" fill="#D9D9D9"/>
<circle cx="2" cy="2" r="2" transform="matrix(1 8.74228e-08 8.74228e-08 -1 20.5 4.5)" fill="#D9D9D9"/>
<circle cx="2" cy="2" r="2" transform="matrix(1 8.74228e-08 8.74228e-08 -1 25.5 4.5)" fill="#D9D9D9"/>
<circle cx="2" cy="2" r="2" transform="matrix(1 8.74228e-08 8.74228e-08 -1 15.5 9.5)" fill="#D9D9D9"/>
<circle cx="2" cy="2" r="2" transform="matrix(1 8.74228e-08 8.74228e-08 -1 20.5 9.5)" fill="#D9D9D9"/>
<circle cx="2" cy="2" r="2" transform="matrix(1 8.74228e-08 8.74228e-08 -1 25.5 9.5)" fill="#D9D9D9"/>
<circle cx="2" cy="2" r="2" transform="matrix(1 8.74228e-08 8.74228e-08 -1 30.5 9.5)" fill="#D9D9D9"/>
<circle cx="2" cy="2" r="2" transform="matrix(1 8.74228e-08 8.74228e-08 -1 35.5 9.5)" fill="#D9D9D9"/>
<circle cx="2" cy="2" r="2" transform="matrix(1 8.74228e-08 8.74228e-08 -1 40.5 9.5)" fill="#D9D9D9"/>
<circle cx="2" cy="2" r="2" transform="matrix(1 8.74228e-08 8.74228e-08 -1 45.5 9.5)" fill="#D9D9D9"/>
<circle cx="2" cy="2" r="2" transform="matrix(1 8.74228e-08 8.74228e-08 -1 50.5 9.5)" fill="#D9D9D9"/>
<circle cx="2" cy="2" r="2" transform="matrix(1 8.74228e-08 8.74228e-08 -1 15.5 19.5)" fill="#D9D9D9"/>
<circle cx="2" cy="2" r="2" transform="matrix(1 8.74228e-08 8.74228e-08 -1 20.5 19.5)" fill="#D9D9D9"/>
<circle cx="2" cy="2" r="2" transform="matrix(1 8.74228e-08 8.74228e-08 -1 25.5 19.5)" fill="#D9D9D9"/>
<circle cx="2" cy="2" r="2" transform="matrix(1 8.74228e-08 8.74228e-08 -1 15.5 24.5)" fill="#D9D9D9"/>
<circle cx="2" cy="2" r="2" transform="matrix(1 8.74228e-08 8.74228e-08 -1 20.5 24.5)" fill="#D9D9D9"/>
<circle cx="2" cy="2" r="2" transform="matrix(1 8.74228e-08 8.74228e-08 -1 25.5 24.5)" fill="#D9D9D9"/>
<circle cx="2" cy="2" r="2" transform="matrix(1 8.74228e-08 8.74228e-08 -1 30.5 24.5)" fill="#D9D9D9"/>
<circle cx="2" cy="2" r="2" transform="matrix(1 8.74228e-08 8.74228e-08 -1 35.5 24.5)" fill="#D9D9D9"/>
<circle cx="2" cy="2" r="2" transform="matrix(1 8.74228e-08 8.74228e-08 -1 40.5 24.5)" fill="#D9D9D9"/>
<circle cx="2" cy="2" r="2" transform="matrix(1 8.74228e-08 8.74228e-08 -1 45.5 24.5)" fill="#D9D9D9"/>
<circle cx="2" cy="2" r="2" transform="matrix(1 8.74228e-08 8.74228e-08 -1 50.5 24.5)" fill="#D9D9D9"/>
<circle cx="2" cy="2" r="2" transform="matrix(1 8.74228e-08 8.74228e-08 -1 15.5 34.5)" fill="#D9D9D9"/>
<circle cx="2" cy="2" r="2" transform="matrix(1 8.74228e-08 8.74228e-08 -1 20.5 34.5)" fill="#D9D9D9"/>
<circle cx="2" cy="2" r="2" transform="matrix(1 8.74228e-08 8.74228e-08 -1 25.5 34.5)" fill="#D9D9D9"/>
<circle cx="2" cy="2" r="2" transform="matrix(1 8.74228e-08 8.74228e-08 -1 15.5 39.5)" fill="#D9D9D9"/>
<circle cx="2" cy="2" r="2" transform="matrix(1 8.74228e-08 8.74228e-08 -1 20.5 39.5)" fill="#D9D9D9"/>
<circle cx="2" cy="2" r="2" transform="matrix(1 8.74228e-08 8.74228e-08 -1 25.5 39.5)" fill="#D9D9D9"/>
<circle cx="2" cy="2" r="2" transform="matrix(1 8.74228e-08 8.74228e-08 -1 30.5 39.5)" fill="#D9D9D9"/>
<circle cx="2" cy="2" r="2" transform="matrix(1 8.74228e-08 8.74228e-08 -1 35.5 39.5)" fill="#D9D9D9"/>
<circle cx="2" cy="2" r="2" transform="matrix(1 8.74228e-08 8.74228e-08 -1 40.5 39.5)" fill="#D9D9D9"/>
<circle cx="2" cy="2" r="2" transform="matrix(1 8.74228e-08 8.74228e-08 -1 45.5 39.5)" fill="#D9D9D9"/>
<circle cx="2" cy="2" r="2" transform="matrix(1 8.74228e-08 8.74228e-08 -1 50.5 39.5)" fill="#D9D9D9"/>
<circle cx="2" cy="2" r="2" transform="matrix(1 8.74228e-08 8.74228e-08 -1 15.5 49.5)" fill="#D9D9D9"/>
<circle cx="2" cy="2" r="2" transform="matrix(1 8.74228e-08 8.74228e-08 -1 20.5 49.5)" fill="#D9D9D9"/>
<circle cx="2" cy="2" r="2" transform="matrix(1 8.74228e-08 8.74228e-08 -1 25.5 49.5)" fill="#D9D9D9"/>
<circle cx="4" cy="4" r="4" transform="matrix(1 8.74228e-08 8.74228e-08 -1 1 54.0002)" fill="#07DFB4"/>
<circle cx="4" cy="4" r="4" transform="matrix(1 8.74228e-08 8.74228e-08 -1 1 39.0002)" fill="#07DFB4"/>
<circle cx="4" cy="4" r="4" transform="matrix(1 8.74228e-08 8.74228e-08 -1 1 24.0002)" fill="#07DFB4"/>
<circle cx="4" cy="4" r="4" transform="matrix(1 8.74228e-08 8.74228e-08 -1 1 9.00024)" fill="#07DFB4"/>
<circle cx="2" cy="2" r="2" transform="matrix(1 8.74228e-08 8.74228e-08 -1 20.5 54.5)" fill="#D9D9D9"/>
<circle cx="2" cy="2" r="2" transform="matrix(1 8.74228e-08 8.74228e-08 -1 15.5 54.5)" fill="#D9D9D9"/>
<circle cx="2" cy="2" r="2" transform="matrix(1 8.74228e-08 8.74228e-08 -1 25.5 54.5)" fill="#D9D9D9"/>
<circle cx="2" cy="2" r="2" transform="matrix(1 8.74228e-08 8.74228e-08 -1 30.5 54.5)" fill="#D9D9D9"/>
<circle cx="2" cy="2" r="2" transform="matrix(1 8.74228e-08 8.74228e-08 -1 35.5 54.5)" fill="#D9D9D9"/>
<circle cx="2" cy="2" r="2" transform="matrix(1 8.74228e-08 8.74228e-08 -1 40.5 54.5)" fill="#D9D9D9"/>
<circle cx="2" cy="2" r="2" transform="matrix(1 8.74228e-08 8.74228e-08 -1 45.5 54.5)" fill="#D9D9D9"/>
<circle cx="2" cy="2" r="2" transform="matrix(1 8.74228e-08 8.74228e-08 -1 50.5 54.5)" fill="#D9D9D9"/>
</g>
<defs>
<clipPath id="clip0_855_6240">
<rect width="55" height="55" fill="white"/>
</clipPath>
</defs>
</svg>
