<svg width="55" height="55" viewBox="0 0 55 55" fill="none" xmlns="http://www.w3.org/2000/svg">
<g clip-path="url(#clip0_723_85681)">
<circle cx="2" cy="2" r="2" transform="matrix(1 8.74228e-08 8.74228e-08 -1 15.502 4.5)" fill="#1C1C1C"/>
<circle cx="2" cy="2" r="2" transform="matrix(1 8.74228e-08 8.74228e-08 -1 20.502 4.5)" fill="#1C1C1C"/>
<circle cx="2" cy="2" r="2" transform="matrix(1 8.74228e-08 8.74228e-08 -1 25.502 4.5)" fill="#1C1C1C"/>
<circle cx="2" cy="2" r="2" transform="matrix(1 8.74228e-08 8.74228e-08 -1 15.502 9.5)" fill="#1C1C1C"/>
<circle cx="2" cy="2" r="2" transform="matrix(1 8.74228e-08 8.74228e-08 -1 20.502 9.5)" fill="#1C1C1C"/>
<circle cx="2" cy="2" r="2" transform="matrix(1 8.74228e-08 8.74228e-08 -1 25.502 9.5)" fill="#1C1C1C"/>
<circle cx="2" cy="2" r="2" transform="matrix(1 8.74228e-08 8.74228e-08 -1 30.502 9.5)" fill="#1C1C1C"/>
<circle cx="2" cy="2" r="2" transform="matrix(1 8.74228e-08 8.74228e-08 -1 35.502 9.5)" fill="#1C1C1C"/>
<circle cx="2" cy="2" r="2" transform="matrix(1 8.74228e-08 8.74228e-08 -1 40.502 9.5)" fill="#1C1C1C"/>
<circle cx="2" cy="2" r="2" transform="matrix(1 8.74228e-08 8.74228e-08 -1 45.502 9.5)" fill="#1C1C1C"/>
<circle cx="2" cy="2" r="2" transform="matrix(1 8.74228e-08 8.74228e-08 -1 50.502 9.5)" fill="#1C1C1C"/>
<circle cx="2" cy="2" r="2" transform="matrix(1 8.74228e-08 8.74228e-08 -1 15.502 19.5)" fill="#1C1C1C"/>
<circle cx="2" cy="2" r="2" transform="matrix(1 8.74228e-08 8.74228e-08 -1 20.502 19.5)" fill="#1C1C1C"/>
<circle cx="2" cy="2" r="2" transform="matrix(1 8.74228e-08 8.74228e-08 -1 25.502 19.5)" fill="#1C1C1C"/>
<circle cx="2" cy="2" r="2" transform="matrix(1 8.74228e-08 8.74228e-08 -1 15.502 24.5)" fill="#1C1C1C"/>
<circle cx="2" cy="2" r="2" transform="matrix(1 8.74228e-08 8.74228e-08 -1 20.502 24.5)" fill="#1C1C1C"/>
<circle cx="2" cy="2" r="2" transform="matrix(1 8.74228e-08 8.74228e-08 -1 25.502 24.5)" fill="#1C1C1C"/>
<circle cx="2" cy="2" r="2" transform="matrix(1 8.74228e-08 8.74228e-08 -1 30.502 24.5)" fill="#1C1C1C"/>
<circle cx="2" cy="2" r="2" transform="matrix(1 8.74228e-08 8.74228e-08 -1 35.502 24.5)" fill="#1C1C1C"/>
<circle cx="2" cy="2" r="2" transform="matrix(1 8.74228e-08 8.74228e-08 -1 40.502 24.5)" fill="#1C1C1C"/>
<circle cx="2" cy="2" r="2" transform="matrix(1 8.74228e-08 8.74228e-08 -1 45.502 24.5)" fill="#1C1C1C"/>
<circle cx="2" cy="2" r="2" transform="matrix(1 8.74228e-08 8.74228e-08 -1 50.502 24.5)" fill="#1C1C1C"/>
<circle cx="2" cy="2" r="2" transform="matrix(1 8.74228e-08 8.74228e-08 -1 15.502 34.5)" fill="#1C1C1C"/>
<circle cx="2" cy="2" r="2" transform="matrix(1 8.74228e-08 8.74228e-08 -1 20.502 34.5)" fill="#1C1C1C"/>
<circle cx="2" cy="2" r="2" transform="matrix(1 8.74228e-08 8.74228e-08 -1 25.502 34.5)" fill="#1C1C1C"/>
<circle cx="2" cy="2" r="2" transform="matrix(1 8.74228e-08 8.74228e-08 -1 15.502 39.5)" fill="#1C1C1C"/>
<circle cx="2" cy="2" r="2" transform="matrix(1 8.74228e-08 8.74228e-08 -1 20.502 39.5)" fill="#1C1C1C"/>
<circle cx="2" cy="2" r="2" transform="matrix(1 8.74228e-08 8.74228e-08 -1 25.502 39.5)" fill="#1C1C1C"/>
<circle cx="2" cy="2" r="2" transform="matrix(1 8.74228e-08 8.74228e-08 -1 30.502 39.5)" fill="#1C1C1C"/>
<circle cx="2" cy="2" r="2" transform="matrix(1 8.74228e-08 8.74228e-08 -1 35.502 39.5)" fill="#1C1C1C"/>
<circle cx="2" cy="2" r="2" transform="matrix(1 8.74228e-08 8.74228e-08 -1 40.502 39.5)" fill="#1C1C1C"/>
<circle cx="2" cy="2" r="2" transform="matrix(1 8.74228e-08 8.74228e-08 -1 45.502 39.5)" fill="#1C1C1C"/>
<circle cx="2" cy="2" r="2" transform="matrix(1 8.74228e-08 8.74228e-08 -1 50.502 39.5)" fill="#1C1C1C"/>
<circle cx="2" cy="2" r="2" transform="matrix(1 8.74228e-08 8.74228e-08 -1 15.502 49.5)" fill="#1C1C1C"/>
<circle cx="2" cy="2" r="2" transform="matrix(1 8.74228e-08 8.74228e-08 -1 20.502 49.5)" fill="#1C1C1C"/>
<circle cx="2" cy="2" r="2" transform="matrix(1 8.74228e-08 8.74228e-08 -1 25.502 49.5)" fill="#1C1C1C"/>
<circle cx="4" cy="4" r="4" transform="matrix(1 8.74228e-08 8.74228e-08 -1 1.00195 54.0002)" fill="#00A685"/>
<circle cx="4" cy="4" r="4" transform="matrix(1 8.74228e-08 8.74228e-08 -1 1.00195 39.0002)" fill="#00A685"/>
<circle cx="4" cy="4" r="4" transform="matrix(1 8.74228e-08 8.74228e-08 -1 1.00195 24.0002)" fill="#00A685"/>
<circle cx="4" cy="4" r="4" transform="matrix(1 8.74228e-08 8.74228e-08 -1 1.00195 9.00024)" fill="#00A685"/>
<circle cx="2" cy="2" r="2" transform="matrix(1 8.74228e-08 8.74228e-08 -1 20.502 54.5)" fill="#1C1C1C"/>
<circle cx="2" cy="2" r="2" transform="matrix(1 8.74228e-08 8.74228e-08 -1 15.502 54.5)" fill="#1C1C1C"/>
<circle cx="2" cy="2" r="2" transform="matrix(1 8.74228e-08 8.74228e-08 -1 25.502 54.5)" fill="#1C1C1C"/>
<circle cx="2" cy="2" r="2" transform="matrix(1 8.74228e-08 8.74228e-08 -1 30.502 54.5)" fill="#1C1C1C"/>
<circle cx="2" cy="2" r="2" transform="matrix(1 8.74228e-08 8.74228e-08 -1 35.502 54.5)" fill="#1C1C1C"/>
<circle cx="2" cy="2" r="2" transform="matrix(1 8.74228e-08 8.74228e-08 -1 40.502 54.5)" fill="#1C1C1C"/>
<circle cx="2" cy="2" r="2" transform="matrix(1 8.74228e-08 8.74228e-08 -1 45.502 54.5)" fill="#1C1C1C"/>
<circle cx="2" cy="2" r="2" transform="matrix(1 8.74228e-08 8.74228e-08 -1 50.502 54.5)" fill="#1C1C1C"/>
</g>
<defs>
<clipPath id="clip0_723_85681">
<rect width="55" height="55" fill="white"/>
</clipPath>
</defs>
</svg>
