<svg width="55" height="55" viewBox="0 0 55 55" fill="none" xmlns="http://www.w3.org/2000/svg">
<g clip-path="url(#clip0_855_6430)">
<rect width="55" height="55" fill="#1C1C1C"/>
<circle cx="2" cy="2" r="2" transform="matrix(1 8.74228e-08 8.74228e-08 -1 5.5 49.5)" fill="#D9D9D9"/>
<circle cx="2" cy="2" r="2" transform="matrix(1 8.74228e-08 8.74228e-08 -1 15.5 49.5)" fill="#D9D9D9"/>
<circle cx="2" cy="2" r="2" transform="matrix(1 8.74228e-08 8.74228e-08 -1 30.5 49.5)" fill="#D9D9D9"/>
<circle cx="2" cy="2" r="2" transform="matrix(1 8.74228e-08 8.74228e-08 -1 40.5 49.5)" fill="#07DFB4"/>
<circle cx="2" cy="2" r="2" transform="matrix(1 8.74228e-08 8.74228e-08 -1 45.5 49.5)" fill="#D9D9D9"/>
<circle cx="2" cy="2" r="2" transform="matrix(1 8.74228e-08 8.74228e-08 -1 20.5 54.5)" fill="#07DFB4"/>
<circle cx="2" cy="2" r="2" transform="matrix(1 8.74228e-08 8.74228e-08 -1 20.5 49.5)" fill="#07DFB4"/>
<circle cx="2" cy="2" r="2" transform="matrix(1 8.74228e-08 8.74228e-08 -1 15.5 54.5)" fill="#D9D9D9"/>
<circle cx="2" cy="2" r="2" transform="matrix(1 8.74228e-08 8.74228e-08 -1 10.5 54.5)" fill="#07DFB4"/>
<circle cx="2" cy="2" r="2" transform="matrix(1 8.74228e-08 8.74228e-08 -1 5.5 54.5)" fill="#D9D9D9"/>
<circle cx="2" cy="2" r="2" transform="matrix(1 8.74228e-08 8.74228e-08 -1 0.5 54.5)" fill="#D9D9D9"/>
<circle cx="2" cy="2" r="2" transform="matrix(1 8.74228e-08 8.74228e-08 -1 0.5 49.5)" fill="#D9D9D9"/>
<circle cx="2" cy="2" r="2" transform="matrix(1 8.74228e-08 8.74228e-08 -1 25.5 54.5)" fill="#D9D9D9"/>
<circle cx="2" cy="2" r="2" transform="matrix(1 8.74228e-08 8.74228e-08 -1 30.5 54.5)" fill="#D9D9D9"/>
<circle cx="2" cy="2" r="2" transform="matrix(1 8.74228e-08 8.74228e-08 -1 35.5 54.5)" fill="#07DFB4"/>
<circle cx="2" cy="2" r="2" transform="matrix(1 8.74228e-08 8.74228e-08 -1 40.5 54.5)" fill="#D9D9D9"/>
<circle cx="2" cy="2" r="2" transform="matrix(1 8.74228e-08 8.74228e-08 -1 45.5 54.5)" fill="#D9D9D9"/>
<circle cx="2" cy="2" r="2" transform="matrix(1 8.74228e-08 8.74228e-08 -1 50.5 54.5)" fill="#D9D9D9"/>
<circle cx="2" cy="2" r="2" transform="matrix(1 8.74228e-08 8.74228e-08 -1 50.5 49.5)" fill="#D9D9D9"/>
<rect x="10.5" y="28.3335" width="4" height="16.6667" rx="2" fill="#07DFB4"/>
<rect x="0.5" y="25" width="4" height="11.6667" rx="2" fill="#D9D9D9"/>
<rect x="20.5" y="18.3335" width="4" height="16.6667" rx="2" fill="#D9D9D9"/>
<rect x="30.5" width="4" height="16.6667" rx="2" fill="#07DFB4"/>
<rect x="40.5" y="13.3335" width="4" height="11.6667" rx="2" fill="#D9D9D9"/>
<rect x="50.5" y="21.6665" width="4" height="16.6667" rx="2" fill="#D9D9D9"/>
</g>
<defs>
<clipPath id="clip0_855_6430">
<rect width="55" height="55" fill="white"/>
</clipPath>
</defs>
</svg>
